<svg width="64" height="64" viewBox="0 0 64 64" fill="none" xmlns="http://www.w3.org/2000/svg">
<rect width="64" height="64" rx="32" fill="black"/>
<path fill-rule="evenodd" clip-rule="evenodd" d="M16.4813 15.7123C25.4708 7.14336 39.7067 7.47981 48.2756 16.4693C48.8329 17.0581 49.3691 17.6679 49.8527 18.3092L32 36.1725L14.1472 18.3092C14.6413 17.6679 15.167 17.0581 15.7243 16.4693C15.9661 16.2169 16.2184 15.9646 16.4813 15.7123ZM45.8364 18.1725C42.1565 14.4716 37.257 12.4424 32 12.4424C26.743 12.4424 21.8434 14.4716 18.1635 18.1725L32 32.009L45.8364 18.1725Z" fill="white"/>
<path d="M51.2511 20.3384L47.6238 23.9658C50.5467 27.4669 50.084 32.6819 46.5829 35.6048C43.5128 38.1702 39.0549 38.1702 35.9848 35.6048L32 39.5896L28.0257 35.6153C24.5245 38.5382 19.3096 38.0755 16.3867 34.5744C13.8213 31.5043 13.8213 27.0464 16.3867 23.9763L14.5257 22.1153L12.7593 20.3384C10.625 23.8501 9.5 27.8875 9.5 31.9985C9.5 44.426 19.5724 54.4984 32 54.4984C44.4275 54.4984 54.4999 44.426 54.4999 31.9985C54.5104 27.8875 53.3749 23.8501 51.2511 20.3384Z" fill="white"/>
<path d="M45.8995 25.69C46.688 26.7099 47.1191 27.9716 47.1191 29.2648C47.1191 30.558 46.688 31.8197 45.8995 32.8396C43.9228 35.3945 40.2535 35.8676 37.6985 33.891L45.8995 25.69Z" fill="white"/>
<path d="M26.3014 33.9015C25.2815 34.69 24.0198 35.1211 22.7266 35.1211C21.4334 35.1211 20.1822 34.69 19.1519 33.912C16.597 31.9354 16.1238 28.2555 18.1005 25.7006L26.3014 33.9015Z" fill="white"/>
</svg>
