<svg viewBox="85.4566 198.5395 36.0364 36.0068" xmlns="http://www.w3.org/2000/svg">
<path fill="#fff" d="M 105.783 226.278 C 102.407 227.088 98.853 226.088 96.395 223.636 C 93.097 220.486 92.444 215.463 94.825 211.574 C 95.583 210.343 96.498 209.216 97.545 208.22 C 100.867 204.91 106.967 198.887 106.967 198.887 C 97.547 197.017 88.318 202.871 85.996 212.191 C 83.671 221.508 89.065 231.011 98.257 233.793 L 105.783 226.278 Z" transform="matrix(1, 0, 0, 1, 1.4210854715202004e-14, 0)"/>
<path fill="#fff" d="M 101.15 206.815 C 104.525 206.003 108.08 207.003 110.537 209.457 C 113.829 212.75 114.472 217.637 112.095 221.501 C 111.335 222.732 110.421 223.861 109.375 224.861 C 106.052 228.166 99.952 234.193 99.952 234.193 C 109.381 236.081 118.63 230.224 120.954 220.893 C 123.281 211.562 117.868 202.049 108.658 199.283 L 101.15 206.815 Z" transform="matrix(1, 0, 0, 1, 1.4210854715202004e-14, 0)"/>
</svg>
