<?xml version="1.0" encoding="UTF-8"?>
<svg width="58" height="56" viewBox="0 0 58 56" fill="none" xmlns="http://www.w3.org/2000/svg">
  <path d="M34.8117 34.7931C23.9034 37.9683 14.8798 42.5995 9.2314 48.0259L8.98203 48.2667C10.484 49.6443 12.131 50.8763 13.9114 51.9235L14.2941 51.4699C15.8367 49.6443 17.4895 47.8803 19.2118 46.2171C23.8338 41.7539 29.1226 37.8899 34.8175 34.7875L34.8117 34.7931Z" fill="url(#paint0_radial_2499_9655)"/>
  <path d="M34.8117 34.7931C23.9034 37.9683 14.8798 42.5995 9.2314 48.0259L8.98203 48.2667C10.484 49.6443 12.131 50.8763 13.9114 51.9235L14.2941 51.4699C15.8367 49.6443 17.4895 47.8803 19.2118 46.2171C23.8338 41.7539 29.1226 37.8899 34.8175 34.7875L34.8117 34.7931Z" fill="#F5F5F5"/>
  <path d="M0.0628662 30.0891C0.497806 35.7507 2.66671 40.9419 6.07083 45.1643L6.22741 45.0131C9.72433 41.6699 14.2767 38.6291 19.7685 35.9803C24.5819 33.6563 30.1085 31.6627 36.0643 30.0891H0.0628662Z" fill="url(#paint1_radial_2499_9655)"/>
  <path d="M0.0628662 30.0891C0.497806 35.7507 2.66671 40.9419 6.07083 45.1643L6.22741 45.0131C9.72433 41.6699 14.2767 38.6291 19.7685 35.9803C24.5819 33.6563 30.1085 31.6627 36.0643 30.0891H0.0628662Z" fill="#F5F5F5"/>
  <path d="M22.2622 6.82104C32.0222 16.2458 44.3049 22.4786 57.7765 24.8418C56.1527 10.8698 43.8816 0.000244141 28.9719 0.000244141C25.0342 0.000244141 21.2821 0.761844 17.8548 2.13384C19.2466 3.75784 20.7312 5.33704 22.2622 6.82104Z" fill="url(#paint2_radial_2499_9655)"/>
  <path d="M22.2622 6.82104C32.0222 16.2458 44.3049 22.4786 57.7765 24.8418C56.1527 10.8698 43.8816 0.000244141 28.9719 0.000244141C25.0342 0.000244141 21.2821 0.761844 17.8548 2.13384C19.2466 3.75784 20.7312 5.33704 22.2622 6.82104Z" fill="#F5F5F5"/>
  <path d="M9.2314 7.97466C14.8798 13.4067 23.9034 18.0323 34.8117 21.2131C29.1168 18.1051 23.828 14.2467 19.206 9.78346C17.4895 8.12586 15.8367 6.36186 14.2883 4.53066L13.9056 4.07706C12.1252 5.12426 10.4782 6.35626 8.98203 7.73386L9.2314 7.97466Z" fill="url(#paint3_radial_2499_9655)"/>
  <path d="M9.2314 7.97466C14.8798 13.4067 23.9034 18.0323 34.8117 21.2131C29.1168 18.1051 23.828 14.2467 19.206 9.78346C17.4895 8.12586 15.8367 6.36186 14.2883 4.53066L13.9056 4.07706C12.1252 5.12426 10.4782 6.35626 8.98203 7.73386L9.2314 7.97466Z" fill="#F5F5F5"/>
  <path d="M22.2622 49.1794C20.7254 50.6634 19.2408 52.2426 17.8548 53.8666C21.2763 55.2386 25.0342 56.0002 28.9719 56.0002C43.8816 56.0002 56.1527 45.1306 57.7823 31.153C44.3107 33.5162 32.028 39.749 22.268 49.1738L22.2622 49.1794Z" fill="url(#paint4_radial_2499_9655)"/>
  <path d="M22.2622 49.1794C20.7254 50.6634 19.2408 52.2426 17.8548 53.8666C21.2763 55.2386 25.0342 56.0002 28.9719 56.0002C43.8816 56.0002 56.1527 45.1306 57.7823 31.153C44.3107 33.5162 32.028 39.749 22.268 49.1738L22.2622 49.1794Z" fill="#F5F5F5"/>
  <path d="M19.7685 20.0202C14.2767 17.3714 9.72433 14.3306 6.22741 10.9874L6.07083 10.8362C2.66671 15.0586 0.497806 20.2498 0.0628662 25.9114H36.0585C30.1027 24.3378 24.5819 22.3442 19.7627 20.0146L19.7685 20.0202Z" fill="url(#paint5_radial_2499_9655)"/>
  <path d="M19.7685 20.0202C14.2767 17.3714 9.72433 14.3306 6.22741 10.9874L6.07083 10.8362C2.66671 15.0586 0.497806 20.2498 0.0628662 25.9114H36.0585C30.1027 24.3378 24.5819 22.3442 19.7627 20.0146L19.7685 20.0202Z" fill="#F5F5F5"/>
  <defs>
    <radialGradient id="paint0_radial_2499_9655" cx="0" cy="0" r="1" gradientUnits="userSpaceOnUse" gradientTransform="translate(28.9226 28.0002) rotate(90) scale(28 28.8597)">
      <stop stop-color="#1C294B"/>
      <stop offset="0.317213" stop-color="#FF4433"/>
      <stop offset="0.597213" stop-color="#FE9A4C"/>
      <stop offset="1" stop-color="#E0E0E0"/>
    </radialGradient>
    <radialGradient id="paint1_radial_2499_9655" cx="0" cy="0" r="1" gradientUnits="userSpaceOnUse" gradientTransform="translate(28.9226 28.0002) rotate(90) scale(28 28.8597)">
      <stop stop-color="#1C294B"/>
      <stop offset="0.317213" stop-color="#FF4433"/>
      <stop offset="0.597213" stop-color="#FE9A4C"/>
      <stop offset="1" stop-color="#E0E0E0"/>
    </radialGradient>
    <radialGradient id="paint2_radial_2499_9655" cx="0" cy="0" r="1" gradientUnits="userSpaceOnUse" gradientTransform="translate(28.9226 28.0002) rotate(90) scale(28 28.8597)">
      <stop stop-color="#1C294B"/>
      <stop offset="0.317213" stop-color="#FF4433"/>
      <stop offset="0.597213" stop-color="#FE9A4C"/>
      <stop offset="1" stop-color="#E0E0E0"/>
    </radialGradient>
    <radialGradient id="paint3_radial_2499_9655" cx="0" cy="0" r="1" gradientUnits="userSpaceOnUse" gradientTransform="translate(28.9226 28.0002) rotate(90) scale(28 28.8597)">
      <stop stop-color="#1C294B"/>
      <stop offset="0.317213" stop-color="#FF4433"/>
      <stop offset="0.597213" stop-color="#FE9A4C"/>
      <stop offset="1" stop-color="#E0E0E0"/>
    </radialGradient>
    <radialGradient id="paint4_radial_2499_9655" cx="0" cy="0" r="1" gradientUnits="userSpaceOnUse" gradientTransform="translate(28.9226 28.0002) rotate(90) scale(28 28.8597)">
      <stop stop-color="#1C294B"/>
      <stop offset="0.317213" stop-color="#FF4433"/>
      <stop offset="0.597213" stop-color="#FE9A4C"/>
      <stop offset="1" stop-color="#E0E0E0"/>
    </radialGradient>
    <radialGradient id="paint5_radial_2499_9655" cx="0" cy="0" r="1" gradientUnits="userSpaceOnUse" gradientTransform="translate(28.9226 28.0002) rotate(90) scale(28 28.8597)">
      <stop stop-color="#1C294B"/>
      <stop offset="0.317213" stop-color="#FF4433"/>
      <stop offset="0.597213" stop-color="#FE9A4C"/>
      <stop offset="1" stop-color="#E0E0E0"/>
    </radialGradient>
  </defs>
</svg>
