<?xml version="1.0" encoding="UTF-8"?><svg id="Layer_2" xmlns="http://www.w3.org/2000/svg" width="74.9201" height="93.1749" viewBox="0 0 74.9201 93.1749"><defs><style>.cls-1{fill:#fab432;}</style></defs><g id="Layer_1-2"><path class="cls-1" d="m37.4753,0L0,21.6643v43.517l34.3671,19.8328,2.7376,8.1608h.7989l2.6939-8.1688,34.3227-19.8261V21.6643L37.4753,0Zm15.4176,72.7072l-15.4175,8.9013-15.448-8.9189-.0005-8.5867,15.4485,8.9192,15.4485-8.9192-.031,8.6043Zm-15.4175-4.8853l-15.4485-8.9192.0005-8.5861,15.448,8.9189,15.4175-8.9013.031,8.5686-15.4485,8.9192Zm15.4175-22.6879l-15.4175,8.9013-15.448-8.9189v-8.5864l15.448,8.9189,15.4175-8.9013v8.5864Zm-15.4175-4.8853l-12.9877-7.4984,12.9877-7.4984,12.9877,7.4984-12.9877,7.4984Zm-4.8248-17.4115l-12.8682,7.4295-12.8733-7.4324,12.8682-7.4295,12.8733,7.4324Zm22.5026,7.4207l-12.853-7.4207,12.8581-7.4236,12.853,7.4207-12.8581,7.4236Zm-4.5748-17.4465l-13.103,7.565-13.103-7.565,13.103-7.565,13.103,7.565ZM4.4677,26.5836l13.0556,7.5376v8.4574l-13.0556-7.5376v-8.4574Zm0,13.6162l13.0556,7.5376v8.6123l-13.0556-7.5376v-8.6123Zm0,13.7712l13.0556,7.5376v8.6295l-13.0556-7.5377v-8.6295Zm65.9847,8.6295l-13.0251,7.5201v-8.6295l13.0251-7.5201v8.6295Zm0-13.7884l-13.0251,7.5201v-8.6123l13.0251-7.5201v8.6123Zm-13.0251-6.2511v-8.4574l13.0251-7.5201v8.4574l-13.0251,7.5201Z"/></g></svg>